<svg width="108" height="14" viewBox="0 0 108 14" fill="none" xmlns="http://www.w3.org/2000/svg">
<path d="M5.70301 13.8616L2.85987 9.81211V13.8616H0V1.05563H2.85987V8.1335L5.68629 4.20519H9.21513L5.33508 9.05068L9.24858 13.8616H5.70301Z" fill="white"/>
<path d="M19.1354 8.87763C19.1354 9.15451 19.1187 9.44293 19.0853 9.74289H12.6129C12.6575 10.3428 12.8415 10.8043 13.1648 11.1273C13.4993 11.4388 13.9063 11.5946 14.3857 11.5946C15.0993 11.5946 15.5954 11.2831 15.8742 10.6601H18.918C18.7619 11.2946 18.4776 11.8657 18.0651 12.3733C17.6637 12.8809 17.1564 13.2789 16.5431 13.5674C15.9299 13.8558 15.2442 14 14.4861 14C13.5718 14 12.7579 13.7981 12.0443 13.3943C11.3307 12.9905 10.7732 12.4137 10.3719 11.6638C9.97047 10.9139 9.76978 10.0371 9.76978 9.03337C9.76978 8.02967 9.9649 7.15286 10.3551 6.40297C10.7565 5.65307 11.314 5.07623 12.0276 4.67244C12.7411 4.26864 13.5606 4.06675 14.4861 4.06675C15.3892 4.06675 16.1919 4.26288 16.8944 4.65513C17.5968 5.04738 18.1431 5.60692 18.5334 6.33375C18.9347 7.06057 19.1354 7.90853 19.1354 8.87763ZM16.2087 8.09889C16.2087 7.59127 16.0414 7.18747 15.7069 6.88752C15.3724 6.58756 14.9543 6.43758 14.4526 6.43758C13.9732 6.43758 13.5662 6.58179 13.2317 6.87021C12.9084 7.15863 12.7077 7.56819 12.6296 8.09889H16.2087Z" fill="white"/>
<path d="M26.3304 4.10136C27.4231 4.10136 28.2928 4.47054 28.9394 5.2089C29.5973 5.93572 29.9262 6.93943 29.9262 8.22003V13.8616H27.083V8.61805C27.083 7.97198 26.9214 7.47013 26.598 7.11248C26.2747 6.75484 25.8399 6.57602 25.2935 6.57602C24.7472 6.57602 24.3124 6.75484 23.989 7.11248C23.6657 7.47013 23.504 7.97198 23.504 8.61805V13.8616H20.6441V4.20519H23.504V5.48579C23.7939 5.05892 24.1841 4.72435 24.6747 4.48208C25.1653 4.22827 25.7172 4.10136 26.3304 4.10136Z" fill="white"/>
<path d="M34.5894 11.4215H38.6367V13.8616H31.395V11.508L35.2751 6.64524H31.4285V4.20519H38.5531V6.55871L34.5894 11.4215Z" fill="white"/>
<path d="M41.6487 3.20148C41.1469 3.20148 40.7344 3.0515 40.4111 2.75155C40.0989 2.44005 39.9428 2.05933 39.9428 1.6094C39.9428 1.14792 40.0989 0.767203 40.4111 0.467244C40.7344 0.155748 41.1469 0 41.6487 0C42.1392 0 42.5406 0.155748 42.8528 0.467244C43.1761 0.767203 43.3378 1.14792 43.3378 1.6094C43.3378 2.05933 43.1761 2.44005 42.8528 2.75155C42.5406 3.0515 42.1392 3.20148 41.6487 3.20148ZM43.0702 4.20519V13.8616H40.2104V4.20519H43.0702Z" fill="white"/>
<path d="M53.9398 8.87763C53.9398 9.15451 53.923 9.44293 53.8896 9.74289H47.4173C47.4619 10.3428 47.6458 10.8043 47.9692 11.1273C48.3037 11.4388 48.7106 11.5946 49.19 11.5946C49.9036 11.5946 50.3998 11.2831 50.6785 10.6601H53.7223C53.5663 11.2946 53.2819 11.8657 52.8694 12.3733C52.468 12.8809 51.9607 13.2789 51.3475 13.5674C50.7343 13.8558 50.0486 14 49.2904 14C48.3761 14 47.5622 13.7981 46.8486 13.3943C46.1351 12.9905 45.5776 12.4137 45.1762 11.6638C44.7748 10.9139 44.5741 10.0371 44.5741 9.03337C44.5741 8.02967 44.7692 7.15286 45.1595 6.40297C45.5609 5.65307 46.1183 5.07623 46.8319 4.67244C47.5455 4.26864 48.365 4.06675 49.2904 4.06675C50.1935 4.06675 50.9963 4.26288 51.6987 4.65513C52.4011 5.04738 52.9475 5.60692 53.3377 6.33375C53.7391 7.06057 53.9398 7.90853 53.9398 8.87763ZM51.013 8.09889C51.013 7.59127 50.8458 7.18747 50.5113 6.88752C50.1768 6.58756 49.7587 6.43758 49.2569 6.43758C48.7775 6.43758 48.3705 6.58179 48.0361 6.87021C47.7127 7.15863 47.512 7.56819 47.434 8.09889H51.013Z" fill="white"/>
<path d="M67.3562 4.10136C68.5158 4.10136 69.4356 4.46477 70.1158 5.19159C70.807 5.91842 71.1527 6.92789 71.1527 8.22003V13.8616H68.3095V8.61805C68.3095 7.99506 68.1479 7.51628 67.8245 7.18171C67.5123 6.8356 67.0775 6.66255 66.52 6.66255C65.9625 6.66255 65.5221 6.8356 65.1988 7.18171C64.8866 7.51628 64.7305 7.99506 64.7305 8.61805V13.8616H61.8874V8.61805C61.8874 7.99506 61.7257 7.51628 61.4024 7.18171C61.0902 6.8356 60.6553 6.66255 60.0979 6.66255C59.5404 6.66255 59.1 6.8356 58.7766 7.18171C58.4644 7.51628 58.3084 7.99506 58.3084 8.61805V13.8616H55.4485V4.20519H58.3084V5.41656C58.5982 5.01277 58.9773 4.69551 59.4456 4.46477C59.9139 4.2225 60.4435 4.10136 61.0344 4.10136C61.7369 4.10136 62.3612 4.25711 62.9076 4.5686C63.465 4.8801 63.8999 5.32427 64.2121 5.90111C64.5354 5.37042 64.9758 4.93778 65.5333 4.60321C66.0908 4.26864 66.6984 4.10136 67.3562 4.10136Z" fill="white"/>
<path d="M77.4008 14C76.4865 14 75.6615 13.7981 74.9256 13.3943C74.2009 12.9905 73.6267 12.4137 73.203 11.6638C72.7904 10.9139 72.5842 10.0371 72.5842 9.03337C72.5842 8.0412 72.796 7.17017 73.2197 6.42027C73.6434 5.65884 74.2232 5.07623 74.959 4.67244C75.6949 4.26864 76.52 4.06675 77.4342 4.06675C78.3485 4.06675 79.1736 4.26864 79.9095 4.67244C80.6453 5.07623 81.2251 5.65884 81.6488 6.42027C82.0725 7.17017 82.2843 8.0412 82.2843 9.03337C82.2843 10.0255 82.0669 10.9023 81.6321 11.6638C81.2084 12.4137 80.623 12.9905 79.876 13.3943C79.1401 13.7981 78.3151 14 77.4008 14ZM77.4008 11.4388C77.9471 11.4388 78.4098 11.2311 78.7889 10.8158C79.1792 10.4005 79.3743 9.80635 79.3743 9.03337C79.3743 8.2604 79.1847 7.66625 78.8056 7.25093C78.4377 6.8356 77.9806 6.62794 77.4342 6.62794C76.8768 6.62794 76.4141 6.8356 76.0461 7.25093C75.6782 7.65472 75.4942 8.24887 75.4942 9.03337C75.4942 9.80635 75.6726 10.4005 76.0294 10.8158C76.3973 11.2311 76.8545 11.4388 77.4008 11.4388Z" fill="white"/>
<path d="M87.9993 11.0927L90.023 4.20519H93.0668L89.7554 13.8616H86.2266L82.9151 4.20519H85.9757L87.9993 11.0927Z" fill="white"/>
<path d="M95.7089 3.20148C95.2072 3.20148 94.7946 3.0515 94.4713 2.75155C94.1591 2.44005 94.003 2.05933 94.003 1.6094C94.003 1.14792 94.1591 0.767203 94.4713 0.467244C94.7946 0.155748 95.2072 0 95.7089 0C96.1995 0 96.6009 0.155748 96.913 0.467244C97.2364 0.767203 97.3981 1.14792 97.3981 1.6094C97.3981 2.05933 97.2364 2.44005 96.913 2.75155C96.6009 3.0515 96.1995 3.20148 95.7089 3.20148ZM97.1305 4.20519V13.8616H94.2706V4.20519H97.1305Z" fill="white"/>
<path d="M108 8.87763C108 9.15451 107.983 9.44293 107.95 9.74289H101.477C101.522 10.3428 101.706 10.8043 102.029 11.1273C102.364 11.4388 102.771 11.5946 103.25 11.5946C103.964 11.5946 104.46 11.2831 104.739 10.6601H107.783C107.626 11.2946 107.342 11.8657 106.93 12.3733C106.528 12.8809 106.021 13.2789 105.408 13.5674C104.794 13.8558 104.109 14 103.351 14C102.436 14 101.622 13.7981 100.909 13.3943C100.195 12.9905 99.6378 12.4137 99.2364 11.6638C98.835 10.9139 98.6343 10.0371 98.6343 9.03337C98.6343 8.02967 98.8295 7.15286 99.2197 6.40297C99.6211 5.65307 100.179 5.07623 100.892 4.67244C101.606 4.26864 102.425 4.06675 103.351 4.06675C104.254 4.06675 105.057 4.26288 105.759 4.65513C106.461 5.04738 107.008 5.60692 107.398 6.33375C107.799 7.06057 108 7.90853 108 8.87763ZM105.073 8.09889C105.073 7.59127 104.906 7.18747 104.571 6.88752C104.237 6.58756 103.819 6.43758 103.317 6.43758C102.838 6.43758 102.431 6.58179 102.096 6.87021C101.773 7.15863 101.572 7.56819 101.494 8.09889H105.073Z" fill="white"/>
</svg>
